<?xml version="1.0" standalone="no"?>
<!DOCTYPE svg PUBLIC "-//W3C//DTD SVG 20010904//EN"
 "http://www.w3.org/TR/2001/REC-SVG-20010904/DTD/svg10.dtd">
<svg version="1.0" xmlns="http://www.w3.org/2000/svg"
 width="400.000000pt" height="400.000000pt" viewBox="0 0 400.000000 400.000000"
 preserveAspectRatio="xMidYMid meet">
<metadata>
Created by potrace 1.14, written by Peter Selinger 2001-2017
</metadata>
<g transform="translate(0.000000,400.000000) scale(0.100000,-0.100000)"
fill="#000000" stroke="none">
<path d="M1770 3844 c-118 -70 -240 -141 -270 -159 -321 -186 -467 -276 -482
-296 -16 -22 -18 -67 -22 -548 -2 -287 -8 -527 -13 -531 -6 -6 -739 -437 -808
-474 -59 -33 -104 -67 -109 -83 -3 -10 -8 -268 -11 -574 l-5 -556 23 -20 c12
-11 180 -109 372 -218 193 -109 403 -229 469 -267 65 -37 127 -68 138 -68 21
0 2 -10 493 265 198 111 391 219 429 240 l69 38 56 -30 c31 -16 228 -127 437
-247 210 -119 390 -216 400 -216 9 0 42 14 73 32 31 17 126 70 211 118 85 48
171 96 190 107 19 11 62 35 95 53 33 18 94 52 135 75 112 63 165 92 218 121
26 14 57 37 69 50 l23 25 -6 407 c-3 224 -7 477 -8 563 -1 109 -5 160 -14 171
-15 18 -77 56 -552 333 -195 114 -357 209 -359 211 -2 2 -6 124 -8 271 -9 753
-9 751 -24 765 -12 12 -134 85 -464 278 -44 26 -170 100 -280 164 -110 64
-211 119 -225 122 -19 3 -78 -27 -240 -122z m633 -254 c213 -124 386 -227 387
-230 0 -6 -31 -24 -454 -262 -175 -100 -327 -183 -337 -185 -17 -5 -779 431
-779 446 0 3 55 39 123 78 67 39 241 141 387 227 146 86 270 155 276 153 6 -1
185 -103 397 -227z m-946 -542 c175 -99 341 -194 368 -210 28 -16 60 -34 73
-40 20 -10 22 -18 23 -107 0 -53 2 -261 5 -463 3 -203 3 -368 0 -368 -7 0
-772 439 -794 456 -2 1 -3 170 -2 376 3 472 4 538 6 538 2 0 146 -82 321 -182z
m1404 165 c0 -10 2 -205 5 -434 l6 -416 -154 -90 c-84 -49 -247 -145 -363
-212 -115 -68 -227 -134 -247 -147 l-38 -24 -1 22 c-1 24 -1 455 0 715 l1 151
38 22 c20 13 51 30 67 40 42 24 526 305 605 351 75 44 80 45 81 22z m500
-1209 c204 -119 367 -220 362 -225 -13 -12 -547 -317 -730 -416 l-62 -33 -43
24 c-24 13 -160 92 -303 176 -143 84 -280 164 -305 178 -25 14 -58 33 -73 43
l-29 17 104 57 c56 32 168 95 248 140 80 45 174 98 210 118 36 20 106 58 155
86 50 28 91 51 93 51 2 0 170 -97 373 -216z m-2004 20 c470 -271 495 -287 486
-294 -10 -10 -347 -203 -601 -344 l-193 -108 -92 54 c-51 30 -226 133 -390
228 l-297 173 77 47 c43 25 107 63 143 84 36 20 72 41 80 46 83 53 478 280
487 280 6 0 141 -75 300 -166z m2448 -636 c6 -420 7 -650 3 -652 -35 -23 -124
-73 -220 -126 -26 -14 -165 -91 -310 -173 -146 -81 -266 -147 -269 -147 -5 0
0 891 5 906 5 14 777 466 784 459 2 -2 5 -122 7 -267z m-1338 46 c208 -118
381 -218 386 -223 4 -4 10 -213 13 -464 5 -384 3 -457 -8 -457 -8 0 -18 4 -24
9 -8 8 -627 361 -727 415 l-38 20 2 458 c2 252 6 458 10 458 4 0 177 -97 386
-216z m-541 -290 l6 -459 -89 -49 c-48 -27 -142 -79 -208 -116 -66 -37 -147
-82 -180 -100 -33 -18 -76 -42 -95 -53 -122 -70 -225 -125 -230 -122 -4 3 -5
430 -1 810 l1 100 147 85 c410 238 638 368 641 365 1 -1 5 -209 8 -461z
m-1634 407 c46 -26 109 -62 139 -79 163 -91 535 -304 541 -310 10 -10 20 -922
10 -922 -4 0 -82 42 -173 93 -90 52 -184 105 -209 119 -169 95 -406 230 -408
233 -6 6 0 903 6 913 4 5 11 1 94 -47z"/>
</g>
</svg>
