<?xml version="1.0" encoding="UTF-8" standalone="no"?><!DOCTYPE svg PUBLIC "-//W3C//DTD SVG 1.1//EN" "http://www.w3.org/Graphics/SVG/1.1/DTD/svg11.dtd"><svg width="100%" height="100%" viewBox="0 0 1667 1667" version="1.1" xmlns="http://www.w3.org/2000/svg" xmlns:xlink="http://www.w3.org/1999/xlink" xml:space="preserve" xmlns:serif="http://www.serif.com/" style="fill-rule:evenodd;clip-rule:evenodd;stroke-linecap:round;stroke-linejoin:round;stroke-miterlimit:1;"><rect id="logo" x="0" y="0" width="1666.67" height="1666.67" style="fill:none;"/><g><g><path d="M442.635,718.147l386.123,226.107l-386.123,226.108l-386.123,-226.108l386.123,-226.107Z" style="fill:none;stroke:#fff;stroke-width:56px;"/><path d="M435.678,1167.33l391.889,-219.599l5.766,449.185l-391.889,219.599l-5.766,-449.185Z" style="fill:none;stroke:#fff;stroke-width:56px;"/><path d="M442.635,1169.97l-3.479,447.864l-389.601,-220.92l3.479,-447.864l389.601,220.92Z" style="fill:none;stroke:#fff;stroke-width:56px;"/></g><g><path d="M834.524,41.084l386.123,226.108l-386.123,226.108l-386.123,-226.108l386.123,-226.108Z" style="fill:none;stroke:#fff;stroke-width:56px;"/><path d="M827.567,490.27l391.889,-219.599l5.766,449.185l-391.889,219.599l-5.766,-449.185Z" style="fill:none;stroke:#fff;stroke-width:56px;"/><path d="M834.524,492.911l-3.478,447.865l-389.602,-220.92l3.479,-447.864l389.601,220.919Z" style="fill:none;stroke:#fff;stroke-width:56px;"/></g><g><path d="M1226.41,697.275l386.123,226.108l-386.123,226.108l-386.122,-226.108l386.122,-226.108Z" style="fill:none;stroke:#fff;stroke-width:56px;"/><path d="M1219.46,1146.46l391.889,-219.598l5.767,449.185l-391.89,219.599l-5.766,-449.186Z" style="fill:none;stroke:#fff;stroke-width:56px;"/><path d="M1226.41,1149.1l-3.478,447.865l-389.602,-220.92l3.479,-447.865l389.601,220.92Z" style="fill:none;stroke:#fff;stroke-width:56px;"/></g></g></svg>